<?xml version="1.0" encoding="UTF-8" standalone="no"?>
<svg
   xmlns:dc="http://purl.org/dc/elements/1.1/"
   xmlns:cc="http://creativecommons.org/ns#"
   xmlns:rdf="http://www.w3.org/1999/02/22-rdf-syntax-ns#"
   xmlns:svg="http://www.w3.org/2000/svg"
   xmlns="http://www.w3.org/2000/svg"
   id="svg8"
   version="1.1"
   viewBox="0 0 132.29166 132.29167"
   height="500"
   width="500">
  <defs
     id="defs2" />
  <metadata
     id="metadata5">
    <rdf:RDF>
      <cc:Work
         rdf:about="">
        <dc:format>image/svg+xml</dc:format>
        <dc:type
           rdf:resource="http://purl.org/dc/dcmitype/StillImage" />
        <dc:title></dc:title>
      </cc:Work>
    </rdf:RDF>
  </metadata>
  <g
     transform="translate(0,-164.70832)"
     id="layer1">
    <path
       id="path815"
       transform="matrix(0.26458333,0,0,0.26458333,0,164.70832)"
       d="M 242.10742 15 C 230.93966 15 225.58403 28.736731 222.375 45 L 210.53711 105 C 210.51529 105.11057 210.50091 105.21974 210.48047 105.33008 A 150 150 0 0 0 175.78906 119.85938 C 175.64948 119.76216 175.51722 119.6598 175.375 119.56445 L 124.57617 85.509766 C 110.80718 76.279025 97.306958 70.351253 89.410156 78.248047 L 78.248047 89.410156 C 70.351246 97.30695 76.279025 110.80716 85.509766 124.57617 L 119.56445 175.375 C 119.64455 175.49448 119.73109 175.60504 119.8125 175.72266 A 150 150 0 0 0 105.47852 210.45508 C 105.31872 210.48381 105.16029 210.50548 105 210.53711 L 45 222.375 C 28.736736 225.58401 15.000005 230.93967 15 242.10742 L 15 257.89258 C 14.999995 269.06033 28.736723 274.41595 45 277.625 L 105 289.46289 C 105.11057 289.48471 105.21974 289.49909 105.33008 289.51953 A 150 150 0 0 0 119.85938 324.21094 C 119.76216 324.35052 119.6598 324.48278 119.56445 324.625 L 85.509766 375.42383 C 76.279014 389.1928 70.351261 402.69305 78.248047 410.58984 L 89.410156 421.75195 C 97.306946 429.64875 110.80716 423.72097 124.57617 414.49023 L 175.375 380.43555 C 175.49448 380.35545 175.60504 380.26891 175.72266 380.1875 A 150 150 0 0 0 210.45508 394.52148 C 210.48381 394.68128 210.50548 394.83971 210.53711 395 L 222.375 455 C 225.584 471.26323 230.93967 485 242.10742 485 L 257.89258 485 C 269.06033 485 274.41596 471.26331 277.625 455 L 289.46289 395 C 289.48471 394.88943 289.49909 394.78026 289.51953 394.66992 A 150 150 0 0 0 324.21094 380.14062 C 324.35052 380.23783 324.48278 380.3402 324.625 380.43555 L 375.42383 414.49023 C 389.19276 423.72097 402.69305 429.64875 410.58984 421.75195 L 421.75195 410.58984 C 429.64871 402.69305 423.72101 389.19287 414.49023 375.42383 L 380.43555 324.625 C 380.35545 324.50552 380.26891 324.39496 380.1875 324.27734 A 150 150 0 0 0 394.52148 289.54492 C 394.68127 289.51619 394.83971 289.49452 395 289.46289 L 455 277.625 C 471.26323 274.41599 485 269.06033 485 257.89258 L 485 242.10742 C 484.99996 230.93971 471.26335 225.58401 455 222.375 L 395 210.53711 C 394.88943 210.51529 394.78026 210.50091 394.66992 210.48047 A 150 150 0 0 0 380.14062 175.78906 C 380.23783 175.64948 380.3402 175.51722 380.43555 175.375 L 414.49023 124.57617 C 423.72097 110.80724 429.64875 97.30695 421.75195 89.410156 L 410.58984 78.248047 C 402.69305 70.351291 389.19285 76.27895 375.42383 85.509766 L 324.625 119.56445 C 324.50552 119.64455 324.39496 119.73109 324.27734 119.8125 A 150 150 0 0 0 289.54492 105.47852 C 289.51619 105.31872 289.49452 105.16029 289.46289 105 L 277.625 45 C 274.41597 28.736731 269.06034 15 257.89258 15 L 242.10742 15 z M 250 190 A 60.000001 60.000001 0 0 1 310 250 A 60.000001 60.000001 0 0 1 250 310 A 60.000001 60.000001 0 0 1 190 250 A 60.000001 60.000001 0 0 1 250 190 z "
       style="fill:#000000;fill-opacity:1;stroke-width:1.04648471" />
  </g>
</svg>
