<?xml version="1.0" encoding="UTF-8" standalone="no"?>
<svg
   xmlns:dc="http://purl.org/dc/elements/1.1/"
   xmlns:cc="http://creativecommons.org/ns#"
   xmlns:rdf="http://www.w3.org/1999/02/22-rdf-syntax-ns#"
   xmlns:svg="http://www.w3.org/2000/svg"
   xmlns="http://www.w3.org/2000/svg"
   id="svg8"
   version="1.1"
   viewBox="0 0 44.979168 44.979168"
   height="170"
   width="170">
  <defs
     id="defs2" />
  <metadata
     id="metadata5">
    <rdf:RDF>
      <cc:Work
         rdf:about="">
        <dc:format>image/svg+xml</dc:format>
        <dc:type
           rdf:resource="http://purl.org/dc/dcmitype/StillImage" />
        <dc:title></dc:title>
      </cc:Work>
    </rdf:RDF>
  </metadata>
  <g
     transform="translate(-85.183838,-52.676882)"
     id="layer1">
    <g
       id="g822"
       transform="translate(107.67342,75.166466)">
      <path
         id="path818"
         style="fill:none;stroke:#000000;stroke-width:0.26458332"
         d="m 18.4685,-1.48722 0.46392,-0.03736 1.23698,0.20261 1.71938,0.71941 V 0.60256 L 20.1694,1.32197 18.93242,1.52458 18.4685,1.48722 18.22413,3.34345 18.6819,3.42744 19.8243,3.9433 21.29889,5.08321 20.98698,6.24726 19.13999,6.49715 17.89272,6.3727 17.45428,6.21655 l -0.71647,1.72973 0.42044,0.1996 0.96995,0.79396 1.12931,1.48272 -0.60255,1.04366 -1.84873,-0.23666 -1.17257,-0.44302 -0.38308,-0.26431 -1.13975,1.48535 0.35445,0.30162 0.73142,1.01794 0.70707,1.72449 -0.85214,0.85214 -1.72449,-0.70707 -1.01794,-0.73142 -0.30162,-0.35445 -1.48535,1.13975 0.26431,0.38308 0.44302,1.17257 0.23666,1.84873 -1.04366,0.60255 L 8.93984,18.1282 8.14588,17.15825 7.94628,16.73781 6.21655,17.45428 6.3727,17.89272 6.49715,19.13999 6.24726,20.98698 5.08321,21.29889 3.9433,19.8243 3.42744,18.6819 3.34345,18.22413 1.48722,18.4685 1.52458,18.93242 1.32197,20.1694 0.60256,21.88878 h -1.20512 l -0.71941,-1.71938 -0.20261,-1.23698 0.03736,-0.46392 -1.85623,-0.24437 -0.08399,0.45777 -0.51586,1.1424 -1.13991,1.47459 -1.16405,-0.31191 -0.24989,-1.84699 0.12445,-1.24727 0.15615,-0.43844 -1.72973,-0.71647 -0.1996,0.42044 -0.79396,0.96995 -1.48272,1.12931 -1.04366,-0.60255 0.23666,-1.84873 0.44302,-1.17257 0.26431,-0.38308 -1.48535,-1.13975 -0.30162,0.35445 -1.01794,0.73142 -1.72449,0.70707 -0.85214,-0.85214 0.70707,-1.72449 0.73142,-1.01794 0.35445,-0.30162 -1.13975,-1.48535 -0.38308,0.26431 -1.17257,0.44302 -1.84873,0.23666 -0.60255,-1.04366 1.12931,-1.48272 0.96995,-0.79396 0.42044,-0.1996 -0.71647,-1.72973 -0.43844,0.15615 -1.24727,0.12445 -1.84699,-0.24989 -0.31191,-1.16405 1.47459,-1.13991 1.1424,-0.51586 0.45777,-0.08399 -0.24437,-1.85623 -0.46392,0.03736 -1.23698,-0.20261 -1.71938,-0.71941 v -1.20512 l 1.71938,-0.71941 1.23698,-0.20261 0.46392,0.03736 0.24437,-1.85623 -0.45777,-0.08399 -1.1424,-0.51586 -1.47459,-1.13991 0.31191,-1.16405 1.84699,-0.24989 1.24727,0.12445 0.43844,0.15615 0.71647,-1.72973 -0.42044,-0.1996 -0.96995,-0.79396 -1.12931,-1.48272 0.60255,-1.04366 1.84873,0.23666 1.17257,0.44302 0.38308,0.26431 1.13975,-1.48535 -0.35445,-0.30162 -0.73142,-1.01794 -0.70707,-1.72449 0.85214,-0.85214 1.72449,0.70707 1.01794,0.73142 0.30162,0.35445 1.48535,-1.13975 -0.26431,-0.38308 -0.44302,-1.17257 -0.23666,-1.84873 1.04366,-0.60255 1.48272,1.12931 0.79396,0.96995 0.1996,0.42044 1.72973,-0.71647 -0.15615,-0.43844 -0.12445,-1.24727 0.24989,-1.84699 1.16405,-0.31191 1.13991,1.47459 0.51586,1.1424 0.08399,0.45777 1.85623,-0.24437 -0.03736,-0.46392 0.20261,-1.23698 0.71941,-1.71938 h 1.20512 l 0.71941,1.71938 0.20261,1.23698 -0.03736,0.46392 1.85623,0.24437 0.08399,-0.45777 0.51586,-1.1424 1.13991,-1.47459 1.16405,0.31191 0.24989,1.84699 -0.12445,1.24727 -0.15615,0.43844 1.72973,0.71647 0.1996,-0.42044 0.79396,-0.96995 1.48272,-1.12931 1.04366,0.60255 -0.23666,1.84873 -0.44302,1.17257 -0.26431,0.38308 1.48535,1.13975 0.30162,-0.35445 1.01794,-0.73142 1.72449,-0.70707 0.85214,0.85214 -0.70707,1.72449 -0.73142,1.01794 -0.35445,0.30162 1.13975,1.48535 0.38308,-0.26431 1.17257,-0.44302 1.84873,-0.23666 0.60255,1.04366 -1.12931,1.48272 -0.96995,0.79396 -0.42044,0.1996 0.71647,1.72973 0.43844,-0.15615 1.24727,-0.12445 1.84699,0.24989 0.31191,1.16405 -1.47459,1.13991 -1.1424,0.51586 -0.45777,0.08399 z" />
      <circle
         id="path820"
         style="fill:none;stroke:#000000;stroke-width:0.26458332"
         cx="0"
         cy="0"
         r="2.6458333" />
    </g>
  </g>
</svg>
