<?xml version="1.0" encoding="UTF-8" standalone="no"?>
<svg
   xmlns:dc="http://purl.org/dc/elements/1.1/"
   xmlns:cc="http://creativecommons.org/ns#"
   xmlns:rdf="http://www.w3.org/1999/02/22-rdf-syntax-ns#"
   xmlns:svg="http://www.w3.org/2000/svg"
   xmlns="http://www.w3.org/2000/svg"
   width="92"
   height="92"
   viewBox="0 0 24.341667 24.341667"
   version="1.1"
   id="svg8">
  <defs
     id="defs2" />
  <metadata
     id="metadata5">
    <rdf:RDF>
      <cc:Work
         rdf:about="">
        <dc:format>image/svg+xml</dc:format>
        <dc:type
           rdf:resource="http://purl.org/dc/dcmitype/StillImage" />
        <dc:title></dc:title>
      </cc:Work>
    </rdf:RDF>
  </metadata>
  <g
     transform="translate(-95.762,-62.736221)"
     id="layer1" />
  <g
     transform="translate(12.170834,12.170833)"
     id="g4251">
    <path
       d="m 8.33259,-1.22361 1.06349,-0.15617 0.6238,0.06064 1.75925,0.79639 v 1.0455 L 10.01988,1.31914 9.39608,1.37978 8.33259,1.22361 7.82804,3.10662 8.82714,3.50312 9.33704,3.86753 10.4624,5.43686 9.93966,6.34228 8.0179,6.15235 7.44736,5.89297 6.60443,5.22597 5.22597,6.60443 5.89297,7.44736 6.15235,8.0179 6.34228,9.93966 5.43686,10.4624 3.86753,9.33704 3.50312,8.82714 3.10662,7.82804 1.22361,8.33259 1.37978,9.39608 1.31914,10.01988 0.52275,11.77913 h -1.0455 l -0.79639,-1.75925 -0.06064,-0.6238 0.15617,-1.06349 -1.88301,-0.50455 -0.3965,0.9991 -0.36441,0.5099 -1.56933,1.12536 -0.90542,-0.52274 0.18993,-1.92176 0.25938,-0.57054 0.667,-0.84293 -1.37846,-1.37846 -0.84293,0.667 -0.57054,0.25938 -1.92176,0.18993 -0.52274,-0.90542 1.12536,-1.56933 0.5099,-0.36441 0.9991,-0.3965 -0.50455,-1.88301 -1.06349,0.15617 -0.6238,-0.06064 -1.75925,-0.79639 v -1.0455 l 1.75925,-0.79639 0.6238,-0.06064 1.06349,0.15617 0.50455,-1.88301 -0.9991,-0.3965 -0.5099,-0.36441 -1.12536,-1.56933 0.52274,-0.90542 1.92176,0.18993 0.57054,0.25938 0.84293,0.667 1.37846,-1.37846 -0.667,-0.84293 -0.25938,-0.57054 -0.18993,-1.92176 0.90542,-0.52274 1.56933,1.12536 0.36441,0.5099 0.3965,0.9991 1.88301,-0.50455 -0.15617,-1.06349 0.06064,-0.6238 0.79639,-1.75925 h 1.0455 l 0.79639,1.75925 0.06064,0.6238 -0.15617,1.06349 1.88301,0.50455 0.3965,-0.9991 0.36441,-0.5099 1.56933,-1.12536 0.90542,0.52274 -0.18993,1.92176 -0.25938,0.57054 -0.667,0.84293 1.37846,1.37846 0.84293,-0.667 0.57054,-0.25938 1.92176,-0.18993 0.52274,0.90542 -1.12536,1.56933 -0.5099,0.36441 -0.9991,0.3965 z"
       style="fill:none;stroke:#000000;stroke-width:0.26458332"
       id="path4247" />
    <circle
       r="2.6458333"
       cy="0"
       cx="0"
       style="fill:none;stroke:#000000;stroke-width:0.26458332"
       id="path4249" />
  </g>
</svg>
