<?xml version="1.0" encoding="UTF-8" standalone="no"?>
<svg
   xmlns:dc="http://purl.org/dc/elements/1.1/"
   xmlns:cc="http://creativecommons.org/ns#"
   xmlns:rdf="http://www.w3.org/1999/02/22-rdf-syntax-ns#"
   xmlns:svg="http://www.w3.org/2000/svg"
   xmlns="http://www.w3.org/2000/svg"
   width="12"
   height="3015"
   viewBox="0 0 3.1750001 797.71875"
   version="1.1"
   id="svg8">
  <defs
     id="defs2" />
  <metadata
     id="metadata5">
    <rdf:RDF>
      <cc:Work
         rdf:about="">
        <dc:format>image/svg+xml</dc:format>
        <dc:type
           rdf:resource="http://purl.org/dc/dcmitype/StillImage" />
        <dc:title></dc:title>
      </cc:Work>
    </rdf:RDF>
  </metadata>
  <g
     transform="translate(-492.98621,334.8557)"
     id="layer1" />
  <g
     transform="rotate(-90,398.86335,398.73106)"
     id="g4378">
    <path
       d="M 0,0 0.963,2.646 H 2.646 L 3.609,0 H 5.292 L 6.255,2.646 H 7.937 L 8.901,0 h 1.682 l 0.963,2.646 h 1.683 L 14.192,0 h 1.683 l 0.963,2.646 h 1.683 L 19.484,0 h 1.683 l 0.963,2.646 h 1.682 L 24.776,0 h 1.682 l 0.963,2.646 h 1.683 L 30.067,0 h 1.683 l 0.963,2.646 h 1.683 L 35.359,0 h 1.683 l 0.963,2.646 h 1.682 L 40.651,0 h 1.682 l 0.963,2.646 h 1.683 L 45.942,0 h 1.683 l 0.963,2.646 h 1.683 L 51.234,0 h 1.683 l 0.963,2.646 h 1.682 L 56.526,0 h 1.682 l 0.963,2.646 h 1.683 L 61.817,0 H 63.5 l 0.963,2.646 h 1.683 L 67.109,0 h 1.683 l 0.963,2.646 h 1.682 L 72.401,0 h 1.682 l 0.963,2.646 h 1.683 L 77.692,0 h 1.683 l 0.963,2.646 h 1.683 L 82.984,0 h 1.683 l 0.963,2.646 h 1.682 L 88.276,0 h 1.682 l 0.963,2.646 h 1.683 L 93.567,0 h 1.683 l 0.963,2.646 h 1.683 L 98.859,0 h 1.683 l 0.963,2.646 h 1.682 L 104.151,0 h 1.682 l 0.963,2.646 h 1.683 L 109.442,0 h 1.683 l 0.963,2.646 h 1.683 L 114.734,0 h 1.683 l 0.963,2.646 h 1.682 L 120.026,0 h 1.682 l 0.963,2.646 h 1.683 L 125.317,0 H 127 l 0.963,2.646 h 1.683 L 130.609,0 h 1.683 l 0.963,2.646 h 1.682 L 135.901,0 h 1.682 l 0.963,2.646 h 1.683 L 141.192,0 h 1.683 l 0.963,2.646 h 1.683 L 146.484,0 h 1.683 l 0.963,2.646 h 1.682 L 151.776,0 h 1.682 l 0.963,2.646 h 1.683 L 157.067,0 h 1.683 l 0.963,2.646 h 1.683 L 162.359,0 h 1.683 l 0.963,2.646 h 1.682 L 167.651,0 h 1.682 l 0.963,2.646 h 1.683 L 172.942,0 h 1.683 l 0.963,2.646 h 1.683 L 178.234,0 h 1.683 l 0.963,2.646 h 1.682 L 183.526,0 h 1.682 l 0.963,2.646 h 1.683 L 188.817,0 h 1.683 l 0.963,2.646 h 1.683 L 194.109,0 h 1.683 l 0.963,2.646 h 1.682 L 199.401,0 h 1.682 l 0.963,2.646 h 1.683 L 204.692,0 h 1.683 l 0.963,2.646 h 1.683 L 209.984,0 h 1.683 l 0.963,2.646 h 1.682 L 215.276,0 h 1.682 l 0.963,2.646 h 1.683 L 220.567,0 h 1.683 l 0.963,2.646 h 1.683 L 225.859,0 h 1.683 l 0.963,2.646 h 1.682 L 231.151,0 h 1.682 l 0.963,2.646 h 1.683 L 236.442,0 h 1.683 l 0.963,2.646 h 1.683 L 241.734,0 h 1.683 l 0.963,2.646 h 1.682 L 247.026,0 h 1.682 l 0.963,2.646 h 1.683 L 252.317,0 H 254 l 0.963,2.646 h 1.683 L 257.609,0 h 1.683 l 0.963,2.646 h 1.682 L 262.901,0 h 1.682 l 0.963,2.646 h 1.683 L 268.192,0 h 1.683 l 0.963,2.646 h 1.683 L 273.484,0 h 1.683 l 0.963,2.646 h 1.682 L 278.776,0 h 1.682 l 0.963,2.646 h 1.683 L 284.067,0 h 1.683 l 0.963,2.646 h 1.683 L 289.359,0 h 1.683 l 0.963,2.646 h 1.682 L 294.651,0 h 1.682 l 0.963,2.646 h 1.683 L 299.942,0 h 1.683 l 0.963,2.646 h 1.683 L 305.234,0 h 1.683 l 0.963,2.646 h 1.682 L 310.526,0 h 1.682 l 0.963,2.646 h 1.683 L 315.817,0 h 1.683 l 0.963,2.646 h 1.683 L 321.109,0 h 1.683 l 0.963,2.646 h 1.682 L 326.401,0 h 1.682 l 0.963,2.646 h 1.683 L 331.692,0 h 1.683 l 0.963,2.646 h 1.683 L 336.984,0 h 1.683 l 0.963,2.646 h 1.682 L 342.276,0 h 1.682 l 0.963,2.646 h 1.683 L 347.567,0 h 1.683 l 0.963,2.646 h 1.683 L 352.859,0 h 1.683 l 0.963,2.646 h 1.682 L 358.151,0 h 1.682 l 0.963,2.646 h 1.683 L 363.442,0 h 1.683 l 0.963,2.646 h 1.683 L 368.734,0 h 1.683 l 0.963,2.646 h 1.682 L 374.026,0 h 1.682 l 0.963,2.646 h 1.683 L 379.317,0 H 381 l 0.963,2.646 h 1.683 L 384.609,0 h 1.683 l 0.963,2.646 h 1.682 L 389.901,0 h 1.682 l 0.963,2.646 h 1.683 L 395.192,0 h 1.683 l 0.963,2.646 h 1.683 L 400.484,0 h 1.683 l 0.963,2.646 h 1.682 L 405.776,0 h 1.682 l 0.963,2.646 h 1.683 L 411.067,0 h 1.683 l 0.963,2.646 h 1.683 L 416.359,0 h 1.683 l 0.963,2.646 h 1.682 L 421.651,0 h 1.682 l 0.963,2.646 h 1.683 L 426.942,0 h 1.683 l 0.963,2.646 h 1.683 L 432.234,0 h 1.683 l 0.963,2.646 h 1.682 L 437.526,0 h 1.682 l 0.963,2.646 h 1.683 L 442.817,0 h 1.683 l 0.963,2.646 h 1.683 L 448.109,0 h 1.683 l 0.963,2.646 h 1.682 L 453.401,0 h 1.682 l 0.963,2.646 h 1.683 L 458.692,0 h 1.683 l 0.963,2.646 h 1.683 L 463.984,0 h 1.683 l 0.963,2.646 h 1.682 L 469.276,0 h 1.682 l 0.963,2.646 h 1.683 L 474.567,0 h 1.683 l 0.963,2.646 h 1.683 L 479.859,0 h 1.683 l 0.963,2.646 h 1.682 L 485.151,0 h 1.682 l 0.963,2.646 h 1.683 L 490.442,0 h 1.683 l 0.963,2.646 h 1.683 L 495.734,0 h 1.683 l 0.963,2.646 h 1.682 L 501.026,0 h 1.682 l 0.963,2.646 h 1.683 L 506.317,0 H 508 l 0.963,2.646 h 1.683 L 511.609,0 h 1.683 l 0.963,2.646 h 1.682 L 516.901,0 h 1.682 l 0.963,2.646 h 1.683 L 522.192,0 h 1.683 l 0.963,2.646 h 1.683 L 527.484,0 h 1.683 l 0.963,2.646 h 1.682 L 532.776,0 h 1.682 l 0.963,2.646 h 1.683 L 538.067,0 h 1.683 l 0.963,2.646 h 1.683 L 543.359,0 h 1.683 l 0.963,2.646 h 1.682 L 548.651,0 h 1.682 l 0.963,2.646 h 1.683 L 553.942,0 h 1.683 l 0.963,2.646 h 1.683 L 559.234,0 h 1.683 l 0.963,2.646 h 1.682 L 564.526,0 h 1.682 l 0.963,2.646 h 1.683 L 569.817,0 h 1.683 l 0.963,2.646 h 1.683 L 575.109,0 h 1.683 l 0.963,2.646 h 1.682 L 580.401,0 h 1.682 l 0.963,2.646 h 1.683 L 585.692,0 h 1.683 l 0.963,2.646 h 1.683 L 590.984,0 h 1.683 l 0.963,2.646 h 1.682 L 596.276,0 h 1.682 l 0.963,2.646 h 1.683 L 601.567,0 h 1.683 l 0.963,2.646 h 1.683 L 606.859,0 h 1.683 l 0.963,2.646 h 1.682 L 612.151,0 h 1.682 l 0.963,2.646 h 1.683 L 617.442,0 h 1.683 l 0.963,2.646 h 1.683 L 622.734,0 h 1.683 l 0.963,2.646 h 1.682 L 628.026,0 h 1.682 l 0.963,2.646 h 1.683 L 633.317,0 H 635 l 0.963,2.646 h 1.683 L 638.609,0 h 1.683 l 0.963,2.646 h 1.682 L 643.901,0 h 1.682 l 0.963,2.646 h 1.683 L 649.192,0 h 1.683 l 0.963,2.646 h 1.683 L 654.484,0 h 1.683 l 0.963,2.646 h 1.682 L 659.776,0 h 1.682 l 0.963,2.646 h 1.683 L 665.067,0 h 1.683 l 0.963,2.646 h 1.683 L 670.359,0 h 1.683 l 0.963,2.646 h 1.682 L 675.651,0 h 1.682 l 0.963,2.646 h 1.683 L 680.942,0 h 1.683 l 0.963,2.646 h 1.683 L 686.234,0 h 1.683 l 0.963,2.646 h 1.682 L 691.526,0 h 1.682 l 0.963,2.646 h 1.683 L 696.817,0 h 1.683 l 0.963,2.646 h 1.683 L 702.109,0 h 1.683 l 0.963,2.646 h 1.682 L 707.401,0 h 1.682 l 0.963,2.646 h 1.683 L 712.692,0 h 1.683 l 0.963,2.646 h 1.683 L 717.984,0 h 1.683 l 0.963,2.646 h 1.682 L 723.276,0 h 1.682 l 0.963,2.646 h 1.683 L 728.567,0 h 1.683 l 0.963,2.646 h 1.683 L 733.859,0 h 1.683 l 0.963,2.646 h 1.682 L 739.151,0 h 1.682 l 0.963,2.646 h 1.683 L 744.442,0 h 1.683 l 0.963,2.646 h 1.683 L 749.734,0 h 1.683 l 0.963,2.646 h 1.682 L 755.026,0 h 1.682 l 0.963,2.646 h 1.683 L 760.317,0 H 762 l 0.963,2.646 h 1.683 L 765.609,0 h 1.683 l 0.963,2.646 h 1.682 L 770.901,0 h 1.682 l 0.963,2.646 h 1.683 L 776.192,0 h 1.683 l 0.963,2.646 h 1.683 L 781.484,0 h 1.683 l 0.963,2.646 h 1.682 L 786.776,0 h 1.682 l 0.963,2.646 h 1.683 L 792.067,0 h 1.683 l 0.963,2.646 h 1.683 L 797.359,0"
       style="fill:none;stroke:#000000;stroke-width:0.26458332"
       id="path4376" />
  </g>
</svg>
